<svg width="23" height="23" viewBox="0 0 23 23" fill="none" xmlns="http://www.w3.org/2000/svg">
<g clip-path="url(#clip0_402_167)">
<path d="M5.62048 5.46989H5.94953C6.44961 5.46989 6.85497 5.06438 6.85497 4.56445V2.06583V1.13122C6.85497 0.631287 6.44961 0.22583 5.94953 0.22583H5.62048C5.12045 0.22583 4.71509 0.631287 4.71509 1.13122V2.06587V4.56445C4.71509 5.06438 5.12045 5.46989 5.62048 5.46989Z" fill="#23D2CE"/>
<path d="M17.2339 5.44742H17.5629C18.0629 5.44742 18.4683 5.04197 18.4683 4.54199V1.82866V1.10871C18.4683 0.608827 18.0629 0.203369 17.5629 0.203369H17.2339C16.7337 0.203369 16.3284 0.608827 16.3284 1.10871V1.82866V4.54194C16.3285 5.04197 16.7338 5.44742 17.2339 5.44742Z" fill="#23D2CE"/>
<path d="M21.5281 2.06592H19.2043V4.7792C19.2043 5.6843 18.468 6.18352 17.563 6.18352H17.234C16.3289 6.18352 15.5925 5.44717 15.5925 4.54206V2.06592H7.59091V4.56449C7.59091 5.4696 6.8546 6.20596 5.94949 6.20596H5.62044C4.71538 6.20596 3.97907 5.4696 3.97907 4.56449V2.06592H1.47196C0.660333 2.06592 0 2.72625 0 3.53792V21.3247C0 22.1363 0.660333 22.7967 1.47196 22.7967H21.5281C22.3397 22.7967 23 22.1363 23 21.3247V3.53792C23.0001 2.7263 22.3397 2.06592 21.5281 2.06592ZM21.5281 21.3247H1.47201L1.47196 7.89257H21.5284L21.5291 21.3246C21.529 21.3246 21.5288 21.3247 21.5281 21.3247Z" fill="#23D2CE"/>
<path d="M12.26 12.398H14.903C15.0078 12.398 15.0927 12.3131 15.0927 12.2083V9.91969C15.0927 9.81492 15.0078 9.72998 14.903 9.72998H12.26C12.1553 9.72998 12.0703 9.81492 12.0703 9.91969V12.2083C12.0703 12.3131 12.1553 12.398 12.26 12.398Z" fill="#23D2CE"/>
<path d="M16.5733 12.398H19.2162C19.321 12.398 19.406 12.3131 19.406 12.2083V9.91969C19.406 9.81492 19.321 9.72998 19.2162 9.72998H16.5733C16.4685 9.72998 16.3835 9.81492 16.3835 9.91969V12.2083C16.3835 12.3131 16.4685 12.398 16.5733 12.398Z" fill="#23D2CE"/>
<path d="M3.63356 16.1446H6.2765C6.38127 16.1446 6.46621 16.0597 6.46621 15.9549V13.6663C6.46621 13.5615 6.38127 13.4766 6.2765 13.4766H3.63356C3.52879 13.4766 3.44385 13.5615 3.44385 13.6663V15.9549C3.44385 16.0597 3.52879 16.1446 3.63356 16.1446Z" fill="#23D2CE"/>
<path d="M7.94679 16.1446H10.5897C10.6945 16.1446 10.7794 16.0597 10.7794 15.9549V13.6663C10.7794 13.5615 10.6945 13.4766 10.5897 13.4766H7.94679C7.84202 13.4766 7.75708 13.5615 7.75708 13.6663V15.9549C7.75708 16.0597 7.84202 16.1446 7.94679 16.1446Z" fill="#23D2CE"/>
<path d="M12.26 16.1446H14.903C15.0077 16.1446 15.0927 16.0597 15.0927 15.9549V13.6663C15.0927 13.5615 15.0077 13.4766 14.903 13.4766H12.26C12.1553 13.4766 12.0703 13.5615 12.0703 13.6663V15.9549C12.0703 16.0597 12.1553 16.1446 12.26 16.1446Z" fill="#23D2CE"/>
<path d="M16.5733 16.1446H19.2162C19.321 16.1446 19.406 16.0597 19.406 15.9549V13.6663C19.406 13.5615 19.321 13.4766 19.2162 13.4766H16.5733C16.4685 13.4766 16.3835 13.5615 16.3835 13.6663V15.9549C16.3835 16.0597 16.4685 16.1446 16.5733 16.1446Z" fill="#23D2CE"/>
<path d="M6.27645 17.2234H3.63356C3.52879 17.2234 3.44385 17.3083 3.44385 17.4131V19.7018C3.44385 19.8065 3.52879 19.8915 3.63356 19.8915H6.2765C6.38127 19.8915 6.46621 19.8065 6.46621 19.7018V17.4131C6.46616 17.3083 6.38122 17.2234 6.27645 17.2234Z" fill="#23D2CE"/>
<path d="M10.5897 17.2234H7.94679C7.84202 17.2234 7.75708 17.3083 7.75708 17.4131V19.7018C7.75708 19.8065 7.84202 19.8915 7.94679 19.8915H10.5897C10.6945 19.8915 10.7794 19.8065 10.7794 19.7018V17.4131C10.7794 17.3083 10.6945 17.2234 10.5897 17.2234Z" fill="#23D2CE"/>
<path d="M14.903 17.2234H12.26C12.1553 17.2234 12.0703 17.3083 12.0703 17.4131V19.7018C12.0703 19.8065 12.1553 19.8915 12.26 19.8915H14.903C15.0078 19.8915 15.0927 19.8065 15.0927 19.7018V17.4131C15.0927 17.3083 15.0078 17.2234 14.903 17.2234Z" fill="#23D2CE"/>
<path d="M19.2162 17.2234H16.5733C16.4685 17.2234 16.3835 17.3083 16.3835 17.4131V19.7018C16.3835 19.8065 16.4685 19.8915 16.5733 19.8915H19.2162C19.321 19.8915 19.406 19.8065 19.406 19.7018V17.4131C19.406 17.3083 19.321 17.2234 19.2162 17.2234Z" fill="#23D2CE"/>
</g>
<defs>
<clipPath id="clip0_402_167">
<rect width="23" height="23" fill="white"/>
</clipPath>
</defs>
</svg>
